<mxfile host="app.diagrams.net" agent="Mozilla/5.0 (Windows NT 10.0; Win64; x64) AppleWebKit/537.36 (KHTML, like Gecko) Chrome/129.0.0.0 Safari/537.36 Edg/129.0.0.0" version="24.7.16">
  <diagram name="Page-1" id="ZZQOxabH6cAu3vSkIN2_">
    <mxGraphModel dx="1737" dy="408" grid="1" gridSize="10" guides="1" tooltips="1" connect="1" arrows="1" fold="1" page="1" pageScale="1" pageWidth="827" pageHeight="1169" math="0" shadow="0">
      <root>
        <mxCell id="0" />
        <mxCell id="1" parent="0" />
        <mxCell id="mNZshATVuIiM8V2iSMGu-1" value="Browser" style="whiteSpace=wrap;html=1;aspect=fixed;" vertex="1" parent="1">
          <mxGeometry x="-730" y="157.5" width="65" height="65" as="geometry" />
        </mxCell>
        <mxCell id="mNZshATVuIiM8V2iSMGu-2" value="Hotel Reservation System" style="whiteSpace=wrap;html=1;aspect=fixed;" vertex="1" parent="1">
          <mxGeometry x="-580" y="145" width="90" height="90" as="geometry" />
        </mxCell>
        <mxCell id="mNZshATVuIiM8V2iSMGu-3" value="Database" style="shape=cylinder3;whiteSpace=wrap;html=1;boundedLbl=1;backgroundOutline=1;size=15;" vertex="1" parent="1">
          <mxGeometry x="-420" y="147.5" width="60" height="85" as="geometry" />
        </mxCell>
        <mxCell id="mNZshATVuIiM8V2iSMGu-4" value="" style="shape=flexArrow;endArrow=classic;startArrow=classic;html=1;rounded=0;exitX=1;exitY=0.5;exitDx=0;exitDy=0;entryX=0;entryY=0.5;entryDx=0;entryDy=0;" edge="1" parent="1" source="mNZshATVuIiM8V2iSMGu-1" target="mNZshATVuIiM8V2iSMGu-2">
          <mxGeometry width="100" height="100" relative="1" as="geometry">
            <mxPoint x="-670" y="360" as="sourcePoint" />
            <mxPoint x="-570" y="260" as="targetPoint" />
            <Array as="points" />
          </mxGeometry>
        </mxCell>
        <mxCell id="mNZshATVuIiM8V2iSMGu-5" value="" style="shape=flexArrow;endArrow=classic;startArrow=classic;html=1;rounded=0;entryX=0;entryY=0.5;entryDx=0;entryDy=0;entryPerimeter=0;exitX=1;exitY=0.5;exitDx=0;exitDy=0;" edge="1" parent="1" source="mNZshATVuIiM8V2iSMGu-2" target="mNZshATVuIiM8V2iSMGu-3">
          <mxGeometry width="100" height="100" relative="1" as="geometry">
            <mxPoint x="-470" y="270" as="sourcePoint" />
            <mxPoint x="-420" y="187" as="targetPoint" />
            <Array as="points" />
          </mxGeometry>
        </mxCell>
        <mxCell id="mNZshATVuIiM8V2iSMGu-6" value="Front tier" style="text;html=1;align=center;verticalAlign=middle;whiteSpace=wrap;rounded=0;" vertex="1" parent="1">
          <mxGeometry x="-730" y="232.5" width="60" height="30" as="geometry" />
        </mxCell>
        <mxCell id="mNZshATVuIiM8V2iSMGu-7" value="Back tier" style="text;html=1;align=center;verticalAlign=middle;whiteSpace=wrap;rounded=0;" vertex="1" parent="1">
          <mxGeometry x="-420" y="240" width="60" height="30" as="geometry" />
        </mxCell>
        <mxCell id="mNZshATVuIiM8V2iSMGu-8" value="Middle tier" style="text;html=1;align=center;verticalAlign=middle;whiteSpace=wrap;rounded=0;" vertex="1" parent="1">
          <mxGeometry x="-565" y="250" width="60" height="30" as="geometry" />
        </mxCell>
      </root>
    </mxGraphModel>
  </diagram>
</mxfile>
